<mxfile host="app.diagrams.net" agent="Mozilla/5.0 (Macintosh; Intel Mac OS X 10_15_7) AppleWebKit/537.36 (KHTML, like Gecko) Chrome/135.0.0.0 Safari/537.36" version="26.2.15">
  <diagram id="R2lEEEUBdFMjLlhIrx00" name="Page-1">
    <mxGraphModel dx="1566" dy="1060" grid="1" gridSize="10" guides="1" tooltips="1" connect="1" arrows="1" fold="1" page="1" pageScale="1" pageWidth="850" pageHeight="1100" math="0" shadow="0" extFonts="Permanent Marker^https://fonts.googleapis.com/css?family=Permanent+Marker">
      <root>
        <mxCell id="0" />
        <mxCell id="1" parent="0" />
        <mxCell id="C-vyLk0tnHw3VtMMgP7b-1" value="" style="edgeStyle=entityRelationEdgeStyle;endArrow=ERzeroToMany;startArrow=ERone;endFill=1;startFill=0;exitX=1.006;exitY=0.235;exitDx=0;exitDy=0;exitPerimeter=0;" parent="1" source="C-vyLk0tnHw3VtMMgP7b-27" edge="1">
          <mxGeometry width="100" height="100" relative="1" as="geometry">
            <mxPoint x="150" y="280" as="sourcePoint" />
            <mxPoint x="360" y="279.5" as="targetPoint" />
          </mxGeometry>
        </mxCell>
        <mxCell id="C-vyLk0tnHw3VtMMgP7b-23" value="Player" style="shape=table;startSize=30;container=1;collapsible=1;childLayout=tableLayout;fixedRows=1;rowLines=0;fontStyle=1;align=center;resizeLast=1;" parent="1" vertex="1">
          <mxGeometry x="50" y="155" width="180" height="320" as="geometry" />
        </mxCell>
        <mxCell id="C-vyLk0tnHw3VtMMgP7b-24" value="" style="shape=partialRectangle;collapsible=0;dropTarget=0;pointerEvents=0;fillColor=none;points=[[0,0.5],[1,0.5]];portConstraint=eastwest;top=0;left=0;right=0;bottom=1;" parent="C-vyLk0tnHw3VtMMgP7b-23" vertex="1">
          <mxGeometry y="30" width="180" height="30" as="geometry" />
        </mxCell>
        <mxCell id="C-vyLk0tnHw3VtMMgP7b-25" value="PK" style="shape=partialRectangle;overflow=hidden;connectable=0;fillColor=none;top=0;left=0;bottom=0;right=0;fontStyle=1;" parent="C-vyLk0tnHw3VtMMgP7b-24" vertex="1">
          <mxGeometry width="30" height="30" as="geometry">
            <mxRectangle width="30" height="30" as="alternateBounds" />
          </mxGeometry>
        </mxCell>
        <mxCell id="C-vyLk0tnHw3VtMMgP7b-26" value="player_id " style="shape=partialRectangle;overflow=hidden;connectable=0;fillColor=none;top=0;left=0;bottom=0;right=0;align=left;spacingLeft=6;fontStyle=5;" parent="C-vyLk0tnHw3VtMMgP7b-24" vertex="1">
          <mxGeometry x="30" width="150" height="30" as="geometry">
            <mxRectangle width="150" height="30" as="alternateBounds" />
          </mxGeometry>
        </mxCell>
        <mxCell id="C-vyLk0tnHw3VtMMgP7b-27" value="" style="shape=partialRectangle;collapsible=0;dropTarget=0;pointerEvents=0;fillColor=none;points=[[0,0.5],[1,0.5]];portConstraint=eastwest;top=0;left=0;right=0;bottom=0;" parent="C-vyLk0tnHw3VtMMgP7b-23" vertex="1">
          <mxGeometry y="60" width="180" height="260" as="geometry" />
        </mxCell>
        <mxCell id="C-vyLk0tnHw3VtMMgP7b-28" value="" style="shape=partialRectangle;overflow=hidden;connectable=0;fillColor=none;top=0;left=0;bottom=0;right=0;" parent="C-vyLk0tnHw3VtMMgP7b-27" vertex="1">
          <mxGeometry width="30" height="260" as="geometry">
            <mxRectangle width="30" height="260" as="alternateBounds" />
          </mxGeometry>
        </mxCell>
        <mxCell id="C-vyLk0tnHw3VtMMgP7b-29" value="username&#xa;&#xa;description&#xa; &#xa;email&#xa;&#xa;type&#xa;&#xa;registration_date&#xa;&#xa;last_modification&#xa;&#xa;win_record&#xa;&#xa;loss_record&#xa;" style="shape=partialRectangle;overflow=hidden;connectable=0;fillColor=none;top=0;left=0;bottom=0;right=0;align=left;spacingLeft=6;" parent="C-vyLk0tnHw3VtMMgP7b-27" vertex="1">
          <mxGeometry x="30" width="150" height="260" as="geometry">
            <mxRectangle width="150" height="260" as="alternateBounds" />
          </mxGeometry>
        </mxCell>
        <mxCell id="Wx7vON4yItLS-gl10yFj-19" value="Card" style="shape=table;startSize=30;container=1;collapsible=1;childLayout=tableLayout;fixedRows=1;rowLines=0;fontStyle=1;align=center;resizeLast=1;" vertex="1" parent="1">
          <mxGeometry x="820" y="160" width="150" height="320" as="geometry" />
        </mxCell>
        <mxCell id="Wx7vON4yItLS-gl10yFj-20" value="" style="shape=partialRectangle;collapsible=0;dropTarget=0;pointerEvents=0;fillColor=none;points=[[0,0.5],[1,0.5]];portConstraint=eastwest;top=0;left=0;right=0;bottom=1;" vertex="1" parent="Wx7vON4yItLS-gl10yFj-19">
          <mxGeometry y="30" width="150" height="30" as="geometry" />
        </mxCell>
        <mxCell id="Wx7vON4yItLS-gl10yFj-21" value="PK" style="shape=partialRectangle;overflow=hidden;connectable=0;fillColor=none;top=0;left=0;bottom=0;right=0;fontStyle=1;" vertex="1" parent="Wx7vON4yItLS-gl10yFj-20">
          <mxGeometry width="30" height="30" as="geometry">
            <mxRectangle width="30" height="30" as="alternateBounds" />
          </mxGeometry>
        </mxCell>
        <mxCell id="Wx7vON4yItLS-gl10yFj-22" value="card_id " style="shape=partialRectangle;overflow=hidden;connectable=0;fillColor=none;top=0;left=0;bottom=0;right=0;align=left;spacingLeft=6;fontStyle=5;" vertex="1" parent="Wx7vON4yItLS-gl10yFj-20">
          <mxGeometry x="30" width="120" height="30" as="geometry">
            <mxRectangle width="120" height="30" as="alternateBounds" />
          </mxGeometry>
        </mxCell>
        <mxCell id="Wx7vON4yItLS-gl10yFj-23" value="" style="shape=partialRectangle;collapsible=0;dropTarget=0;pointerEvents=0;fillColor=none;points=[[0,0.5],[1,0.5]];portConstraint=eastwest;top=0;left=0;right=0;bottom=0;" vertex="1" parent="Wx7vON4yItLS-gl10yFj-19">
          <mxGeometry y="60" width="150" height="260" as="geometry" />
        </mxCell>
        <mxCell id="Wx7vON4yItLS-gl10yFj-24" value="" style="shape=partialRectangle;overflow=hidden;connectable=0;fillColor=none;top=0;left=0;bottom=0;right=0;" vertex="1" parent="Wx7vON4yItLS-gl10yFj-23">
          <mxGeometry width="30" height="260" as="geometry">
            <mxRectangle width="30" height="260" as="alternateBounds" />
          </mxGeometry>
        </mxCell>
        <mxCell id="Wx7vON4yItLS-gl10yFj-25" value="name&#xa;&#xa;description&#xa;&#xa;type&#xa;&#xa;hit_points&#xa;&#xa;energy_cost&#xa;&#xa;rarity&#xa;&#xa;creation_date &#xa;&#xa;last_modified&#xa;" style="shape=partialRectangle;overflow=hidden;connectable=0;fillColor=none;top=0;left=0;bottom=0;right=0;align=left;spacingLeft=6;" vertex="1" parent="Wx7vON4yItLS-gl10yFj-23">
          <mxGeometry x="30" width="120" height="260" as="geometry">
            <mxRectangle width="120" height="260" as="alternateBounds" />
          </mxGeometry>
        </mxCell>
        <mxCell id="Wx7vON4yItLS-gl10yFj-26" value="Deck" style="shape=table;startSize=30;container=1;collapsible=1;childLayout=tableLayout;fixedRows=1;rowLines=0;fontStyle=1;align=center;resizeLast=1;" vertex="1" parent="1">
          <mxGeometry x="360" y="180" width="150" height="200" as="geometry" />
        </mxCell>
        <mxCell id="Wx7vON4yItLS-gl10yFj-27" value="" style="shape=partialRectangle;collapsible=0;dropTarget=0;pointerEvents=0;fillColor=none;points=[[0,0.5],[1,0.5]];portConstraint=eastwest;top=0;left=0;right=0;bottom=1;" vertex="1" parent="Wx7vON4yItLS-gl10yFj-26">
          <mxGeometry y="30" width="150" height="30" as="geometry" />
        </mxCell>
        <mxCell id="Wx7vON4yItLS-gl10yFj-28" value="PK" style="shape=partialRectangle;overflow=hidden;connectable=0;fillColor=none;top=0;left=0;bottom=0;right=0;fontStyle=1;" vertex="1" parent="Wx7vON4yItLS-gl10yFj-27">
          <mxGeometry width="30" height="30" as="geometry">
            <mxRectangle width="30" height="30" as="alternateBounds" />
          </mxGeometry>
        </mxCell>
        <mxCell id="Wx7vON4yItLS-gl10yFj-29" value="deck_id " style="shape=partialRectangle;overflow=hidden;connectable=0;fillColor=none;top=0;left=0;bottom=0;right=0;align=left;spacingLeft=6;fontStyle=5;" vertex="1" parent="Wx7vON4yItLS-gl10yFj-27">
          <mxGeometry x="30" width="120" height="30" as="geometry">
            <mxRectangle width="120" height="30" as="alternateBounds" />
          </mxGeometry>
        </mxCell>
        <mxCell id="Wx7vON4yItLS-gl10yFj-30" value="" style="shape=partialRectangle;collapsible=0;dropTarget=0;pointerEvents=0;fillColor=none;points=[[0,0.5],[1,0.5]];portConstraint=eastwest;top=0;left=0;right=0;bottom=0;" vertex="1" parent="Wx7vON4yItLS-gl10yFj-26">
          <mxGeometry y="60" width="150" height="140" as="geometry" />
        </mxCell>
        <mxCell id="Wx7vON4yItLS-gl10yFj-31" value="" style="shape=partialRectangle;overflow=hidden;connectable=0;fillColor=none;top=0;left=0;bottom=0;right=0;" vertex="1" parent="Wx7vON4yItLS-gl10yFj-30">
          <mxGeometry width="30" height="140" as="geometry">
            <mxRectangle width="30" height="140" as="alternateBounds" />
          </mxGeometry>
        </mxCell>
        <mxCell id="Wx7vON4yItLS-gl10yFj-32" value="name&#xa;&#xa;description&#xa;&#xa;size&#xa;&#xa;creation_date &#xa;&#xa;player_id (FK)&#xa;" style="shape=partialRectangle;overflow=hidden;connectable=0;fillColor=none;top=0;left=0;bottom=0;right=0;align=left;spacingLeft=6;" vertex="1" parent="Wx7vON4yItLS-gl10yFj-30">
          <mxGeometry x="30" width="120" height="140" as="geometry">
            <mxRectangle width="120" height="140" as="alternateBounds" />
          </mxGeometry>
        </mxCell>
        <mxCell id="Wx7vON4yItLS-gl10yFj-33" value="Game" style="shape=table;startSize=30;container=1;collapsible=1;childLayout=tableLayout;fixedRows=1;rowLines=0;fontStyle=1;align=center;resizeLast=1;" vertex="1" parent="1">
          <mxGeometry x="240" y="480" width="150" height="200" as="geometry" />
        </mxCell>
        <mxCell id="Wx7vON4yItLS-gl10yFj-34" value="" style="shape=partialRectangle;collapsible=0;dropTarget=0;pointerEvents=0;fillColor=none;points=[[0,0.5],[1,0.5]];portConstraint=eastwest;top=0;left=0;right=0;bottom=1;" vertex="1" parent="Wx7vON4yItLS-gl10yFj-33">
          <mxGeometry y="30" width="150" height="30" as="geometry" />
        </mxCell>
        <mxCell id="Wx7vON4yItLS-gl10yFj-35" value="PK" style="shape=partialRectangle;overflow=hidden;connectable=0;fillColor=none;top=0;left=0;bottom=0;right=0;fontStyle=1;" vertex="1" parent="Wx7vON4yItLS-gl10yFj-34">
          <mxGeometry width="30" height="30" as="geometry">
            <mxRectangle width="30" height="30" as="alternateBounds" />
          </mxGeometry>
        </mxCell>
        <mxCell id="Wx7vON4yItLS-gl10yFj-36" value="game_id " style="shape=partialRectangle;overflow=hidden;connectable=0;fillColor=none;top=0;left=0;bottom=0;right=0;align=left;spacingLeft=6;fontStyle=5;" vertex="1" parent="Wx7vON4yItLS-gl10yFj-34">
          <mxGeometry x="30" width="120" height="30" as="geometry">
            <mxRectangle width="120" height="30" as="alternateBounds" />
          </mxGeometry>
        </mxCell>
        <mxCell id="Wx7vON4yItLS-gl10yFj-37" value="" style="shape=partialRectangle;collapsible=0;dropTarget=0;pointerEvents=0;fillColor=none;points=[[0,0.5],[1,0.5]];portConstraint=eastwest;top=0;left=0;right=0;bottom=0;" vertex="1" parent="Wx7vON4yItLS-gl10yFj-33">
          <mxGeometry y="60" width="150" height="140" as="geometry" />
        </mxCell>
        <mxCell id="Wx7vON4yItLS-gl10yFj-38" value="" style="shape=partialRectangle;overflow=hidden;connectable=0;fillColor=none;top=0;left=0;bottom=0;right=0;" vertex="1" parent="Wx7vON4yItLS-gl10yFj-37">
          <mxGeometry width="30" height="140" as="geometry">
            <mxRectangle width="30" height="140" as="alternateBounds" />
          </mxGeometry>
        </mxCell>
        <mxCell id="Wx7vON4yItLS-gl10yFj-39" value="player1_id(FK)&#xa;&#xa;player2_id (FK)&#xa;&#xa;winner_id (FK)&#xa;&#xa;creation_date&#xa;&#xa;duration" style="shape=partialRectangle;overflow=hidden;connectable=0;fillColor=none;top=0;left=0;bottom=0;right=0;align=left;spacingLeft=6;" vertex="1" parent="Wx7vON4yItLS-gl10yFj-37">
          <mxGeometry x="30" width="120" height="140" as="geometry">
            <mxRectangle width="120" height="140" as="alternateBounds" />
          </mxGeometry>
        </mxCell>
        <mxCell id="Wx7vON4yItLS-gl10yFj-40" value="Turn" style="shape=table;startSize=30;container=1;collapsible=1;childLayout=tableLayout;fixedRows=1;rowLines=0;fontStyle=1;align=center;resizeLast=1;" vertex="1" parent="1">
          <mxGeometry x="540" y="480" width="150" height="200" as="geometry" />
        </mxCell>
        <mxCell id="Wx7vON4yItLS-gl10yFj-41" value="" style="shape=partialRectangle;collapsible=0;dropTarget=0;pointerEvents=0;fillColor=none;points=[[0,0.5],[1,0.5]];portConstraint=eastwest;top=0;left=0;right=0;bottom=1;" vertex="1" parent="Wx7vON4yItLS-gl10yFj-40">
          <mxGeometry y="30" width="150" height="30" as="geometry" />
        </mxCell>
        <mxCell id="Wx7vON4yItLS-gl10yFj-42" value="PK" style="shape=partialRectangle;overflow=hidden;connectable=0;fillColor=none;top=0;left=0;bottom=0;right=0;fontStyle=1;" vertex="1" parent="Wx7vON4yItLS-gl10yFj-41">
          <mxGeometry width="30" height="30" as="geometry">
            <mxRectangle width="30" height="30" as="alternateBounds" />
          </mxGeometry>
        </mxCell>
        <mxCell id="Wx7vON4yItLS-gl10yFj-43" value="turn_id " style="shape=partialRectangle;overflow=hidden;connectable=0;fillColor=none;top=0;left=0;bottom=0;right=0;align=left;spacingLeft=6;fontStyle=5;" vertex="1" parent="Wx7vON4yItLS-gl10yFj-41">
          <mxGeometry x="30" width="120" height="30" as="geometry">
            <mxRectangle width="120" height="30" as="alternateBounds" />
          </mxGeometry>
        </mxCell>
        <mxCell id="Wx7vON4yItLS-gl10yFj-44" value="" style="shape=partialRectangle;collapsible=0;dropTarget=0;pointerEvents=0;fillColor=none;points=[[0,0.5],[1,0.5]];portConstraint=eastwest;top=0;left=0;right=0;bottom=0;" vertex="1" parent="Wx7vON4yItLS-gl10yFj-40">
          <mxGeometry y="60" width="150" height="140" as="geometry" />
        </mxCell>
        <mxCell id="Wx7vON4yItLS-gl10yFj-45" value="" style="shape=partialRectangle;overflow=hidden;connectable=0;fillColor=none;top=0;left=0;bottom=0;right=0;" vertex="1" parent="Wx7vON4yItLS-gl10yFj-44">
          <mxGeometry width="30" height="140" as="geometry">
            <mxRectangle width="30" height="140" as="alternateBounds" />
          </mxGeometry>
        </mxCell>
        <mxCell id="Wx7vON4yItLS-gl10yFj-46" value="game_id (FK)&#xa;&#xa;player_id (FK)&#xa;&#xa;date_time&#xa;&#xa;duration&#xa;&#xa;turn_status" style="shape=partialRectangle;overflow=hidden;connectable=0;fillColor=none;top=0;left=0;bottom=0;right=0;align=left;spacingLeft=6;" vertex="1" parent="Wx7vON4yItLS-gl10yFj-44">
          <mxGeometry x="30" width="120" height="140" as="geometry">
            <mxRectangle width="120" height="140" as="alternateBounds" />
          </mxGeometry>
        </mxCell>
        <mxCell id="Wx7vON4yItLS-gl10yFj-55" value="&lt;b&gt;Deck_Compositon&lt;/b&gt;" style="swimlane;fontStyle=0;childLayout=stackLayout;horizontal=1;startSize=30;horizontalStack=0;resizeParent=1;resizeParentMax=0;resizeLast=0;collapsible=1;marginBottom=0;whiteSpace=wrap;html=1;" vertex="1" parent="1">
          <mxGeometry x="610" y="200" width="140" height="170" as="geometry" />
        </mxCell>
        <mxCell id="Wx7vON4yItLS-gl10yFj-56" value="&lt;div&gt;deck_id (PK, FK)&lt;/div&gt;&lt;div&gt;&lt;br&gt;&lt;/div&gt;&lt;div&gt;&lt;div&gt;card_id (PK, FK)&lt;/div&gt;&lt;/div&gt;&lt;div&gt;&lt;br&gt;&lt;/div&gt;&lt;div&gt;player_id (PK, FK)&lt;/div&gt;&lt;div&gt;&lt;br&gt;&lt;/div&gt;&lt;div&gt;card_disabled&lt;/div&gt;&lt;div&gt;&lt;br&gt;&lt;/div&gt;&lt;div&gt;last_modified&lt;/div&gt;" style="text;strokeColor=none;fillColor=none;align=left;verticalAlign=middle;spacingLeft=4;spacingRight=4;overflow=hidden;points=[[0,0.5],[1,0.5]];portConstraint=eastwest;rotatable=0;whiteSpace=wrap;html=1;" vertex="1" parent="Wx7vON4yItLS-gl10yFj-55">
          <mxGeometry y="30" width="140" height="140" as="geometry" />
        </mxCell>
        <mxCell id="Wx7vON4yItLS-gl10yFj-62" value="" style="endArrow=none;html=1;rounded=0;exitX=1.027;exitY=0.371;exitDx=0;exitDy=0;exitPerimeter=0;entryX=0.014;entryY=0.45;entryDx=0;entryDy=0;entryPerimeter=0;" edge="1" parent="1" source="Wx7vON4yItLS-gl10yFj-30" target="Wx7vON4yItLS-gl10yFj-56">
          <mxGeometry width="50" height="50" relative="1" as="geometry">
            <mxPoint x="520" y="290" as="sourcePoint" />
            <mxPoint x="600" y="290" as="targetPoint" />
          </mxGeometry>
        </mxCell>
        <mxCell id="Wx7vON4yItLS-gl10yFj-64" value="M:M" style="text;html=1;align=center;verticalAlign=middle;resizable=0;points=[];autosize=1;strokeColor=none;fillColor=none;" vertex="1" parent="1">
          <mxGeometry x="515" y="258" width="50" height="30" as="geometry" />
        </mxCell>
        <mxCell id="Wx7vON4yItLS-gl10yFj-65" value="&lt;b&gt;Played&lt;/b&gt;" style="swimlane;fontStyle=0;childLayout=stackLayout;horizontal=1;startSize=30;horizontalStack=0;resizeParent=1;resizeParentMax=0;resizeLast=0;collapsible=1;marginBottom=0;whiteSpace=wrap;html=1;" vertex="1" parent="1">
          <mxGeometry x="830" y="560" width="140" height="170" as="geometry" />
        </mxCell>
        <mxCell id="Wx7vON4yItLS-gl10yFj-66" value="&lt;div&gt;played_id (PK)&lt;/div&gt;&lt;div&gt;&lt;span style=&quot;background-color: transparent; color: light-dark(rgb(0, 0, 0), rgb(255, 255, 255));&quot;&gt;&lt;br&gt;&lt;/span&gt;&lt;/div&gt;&lt;div&gt;&lt;span style=&quot;background-color: transparent; color: light-dark(rgb(0, 0, 0), rgb(255, 255, 255));&quot;&gt;turn_id (FK)&lt;/span&gt;&lt;/div&gt;&lt;div&gt;&lt;br&gt;&lt;/div&gt;&lt;div&gt;card_id (FK)&lt;/div&gt;&lt;div&gt;&lt;br&gt;&lt;/div&gt;&lt;div&gt;date_time&lt;/div&gt;&lt;div&gt;&lt;br&gt;&lt;/div&gt;&lt;div&gt;hit_points_damage&lt;/div&gt;" style="text;strokeColor=none;fillColor=none;align=left;verticalAlign=middle;spacingLeft=4;spacingRight=4;overflow=hidden;points=[[0,0.5],[1,0.5]];portConstraint=eastwest;rotatable=0;whiteSpace=wrap;html=1;" vertex="1" parent="Wx7vON4yItLS-gl10yFj-65">
          <mxGeometry y="30" width="140" height="140" as="geometry" />
        </mxCell>
        <mxCell id="Wx7vON4yItLS-gl10yFj-67" value="&lt;b&gt;Triggers&lt;/b&gt;" style="swimlane;fontStyle=0;childLayout=stackLayout;horizontal=1;startSize=30;horizontalStack=0;resizeParent=1;resizeParentMax=0;resizeLast=0;collapsible=1;marginBottom=0;whiteSpace=wrap;html=1;" vertex="1" parent="1">
          <mxGeometry x="1040" y="270" width="140" height="130" as="geometry" />
        </mxCell>
        <mxCell id="Wx7vON4yItLS-gl10yFj-68" value="&lt;div&gt;trigger_id (PK)&lt;/div&gt;&lt;div&gt;&lt;br&gt;&lt;/div&gt;&lt;div&gt;effect_id (FK)&lt;/div&gt;&lt;div&gt;&lt;br&gt;&lt;/div&gt;&lt;div&gt;card_id (FK)&lt;/div&gt;" style="text;strokeColor=none;fillColor=none;align=left;verticalAlign=middle;spacingLeft=4;spacingRight=4;overflow=hidden;points=[[0,0.5],[1,0.5]];portConstraint=eastwest;rotatable=0;whiteSpace=wrap;html=1;" vertex="1" parent="Wx7vON4yItLS-gl10yFj-67">
          <mxGeometry y="30" width="140" height="100" as="geometry" />
        </mxCell>
        <mxCell id="Wx7vON4yItLS-gl10yFj-69" value="&lt;b&gt;Effect&lt;/b&gt;" style="swimlane;fontStyle=0;childLayout=stackLayout;horizontal=1;startSize=30;horizontalStack=0;resizeParent=1;resizeParentMax=0;resizeLast=0;collapsible=1;marginBottom=0;whiteSpace=wrap;html=1;" vertex="1" parent="1">
          <mxGeometry x="1240" y="190" width="140" height="250" as="geometry" />
        </mxCell>
        <mxCell id="Wx7vON4yItLS-gl10yFj-70" value="&lt;div&gt;effect_id (PK)&lt;/div&gt;&lt;div&gt;&lt;br&gt;&lt;/div&gt;&lt;div&gt;name&lt;/div&gt;&lt;div&gt;&lt;br&gt;&lt;/div&gt;&lt;div&gt;conditions&lt;/div&gt;&lt;div&gt;&lt;br&gt;&lt;/div&gt;&lt;div&gt;effect_type&lt;/div&gt;&lt;div&gt;&lt;br&gt;&lt;/div&gt;&lt;div&gt;target_type&lt;/div&gt;&lt;div&gt;&lt;br&gt;&lt;/div&gt;&lt;div&gt;magnitude&amp;nbsp;&lt;/div&gt;&lt;div&gt;&lt;br&gt;&lt;/div&gt;&lt;div&gt;duration&amp;nbsp;&lt;/div&gt;&lt;div&gt;&lt;br&gt;&lt;/div&gt;&lt;div&gt;additional_details&lt;/div&gt;&lt;div&gt;&lt;br&gt;&lt;/div&gt;" style="text;strokeColor=none;fillColor=none;align=left;verticalAlign=middle;spacingLeft=4;spacingRight=4;overflow=hidden;points=[[0,0.5],[1,0.5]];portConstraint=eastwest;rotatable=0;whiteSpace=wrap;html=1;" vertex="1" parent="Wx7vON4yItLS-gl10yFj-69">
          <mxGeometry y="30" width="140" height="220" as="geometry" />
        </mxCell>
        <mxCell id="Wx7vON4yItLS-gl10yFj-72" value="" style="endArrow=none;html=1;rounded=0;entryX=0.02;entryY=0.254;entryDx=0;entryDy=0;entryPerimeter=0;exitX=0.986;exitY=0.379;exitDx=0;exitDy=0;exitPerimeter=0;" edge="1" parent="1" source="Wx7vON4yItLS-gl10yFj-56" target="Wx7vON4yItLS-gl10yFj-23">
          <mxGeometry width="50" height="50" relative="1" as="geometry">
            <mxPoint x="750" y="288" as="sourcePoint" />
            <mxPoint x="810" y="288" as="targetPoint" />
          </mxGeometry>
        </mxCell>
        <mxCell id="Wx7vON4yItLS-gl10yFj-74" value="" style="endArrow=none;html=1;rounded=0;exitX=1.027;exitY=0.371;exitDx=0;exitDy=0;exitPerimeter=0;entryX=-0.027;entryY=0.279;entryDx=0;entryDy=0;entryPerimeter=0;" edge="1" parent="1" target="Wx7vON4yItLS-gl10yFj-44">
          <mxGeometry width="50" height="50" relative="1" as="geometry">
            <mxPoint x="390" y="579.5" as="sourcePoint" />
            <mxPoint x="488" y="580.5" as="targetPoint" />
          </mxGeometry>
        </mxCell>
        <mxCell id="Wx7vON4yItLS-gl10yFj-75" value="1:M" style="text;html=1;align=center;verticalAlign=middle;resizable=0;points=[];autosize=1;strokeColor=none;fillColor=none;" vertex="1" parent="1">
          <mxGeometry x="430" y="550" width="40" height="30" as="geometry" />
        </mxCell>
        <mxCell id="Wx7vON4yItLS-gl10yFj-76" value="" style="endArrow=none;html=1;rounded=0;exitX=1;exitY=0.5;exitDx=0;exitDy=0;entryX=-0.029;entryY=0.15;entryDx=0;entryDy=0;entryPerimeter=0;" edge="1" parent="1" source="Wx7vON4yItLS-gl10yFj-44" target="Wx7vON4yItLS-gl10yFj-66">
          <mxGeometry width="50" height="50" relative="1" as="geometry">
            <mxPoint x="740" y="610.5" as="sourcePoint" />
            <mxPoint x="886" y="610" as="targetPoint" />
          </mxGeometry>
        </mxCell>
        <mxCell id="Wx7vON4yItLS-gl10yFj-77" value="" style="endArrow=none;html=1;rounded=0;entryX=0.52;entryY=1;entryDx=0;entryDy=0;entryPerimeter=0;exitX=0.5;exitY=0;exitDx=0;exitDy=0;" edge="1" parent="1" source="Wx7vON4yItLS-gl10yFj-65" target="Wx7vON4yItLS-gl10yFj-23">
          <mxGeometry width="50" height="50" relative="1" as="geometry">
            <mxPoint x="898" y="550" as="sourcePoint" />
            <mxPoint x="710" y="510" as="targetPoint" />
          </mxGeometry>
        </mxCell>
        <mxCell id="Wx7vON4yItLS-gl10yFj-78" value="1:M" style="text;html=1;align=center;verticalAlign=middle;resizable=0;points=[];autosize=1;strokeColor=none;fillColor=none;" vertex="1" parent="1">
          <mxGeometry x="750" y="580" width="40" height="30" as="geometry" />
        </mxCell>
        <mxCell id="Wx7vON4yItLS-gl10yFj-81" value="M:M" style="text;html=1;align=center;verticalAlign=middle;resizable=0;points=[];autosize=1;strokeColor=none;fillColor=none;" vertex="1" parent="1">
          <mxGeometry x="980" y="310" width="50" height="30" as="geometry" />
        </mxCell>
        <mxCell id="Wx7vON4yItLS-gl10yFj-82" value="" style="endArrow=none;html=1;rounded=0;entryX=0;entryY=0.5;entryDx=0;entryDy=0;exitX=1;exitY=0.5;exitDx=0;exitDy=0;" edge="1" parent="1" source="Wx7vON4yItLS-gl10yFj-23" target="Wx7vON4yItLS-gl10yFj-68">
          <mxGeometry width="50" height="50" relative="1" as="geometry">
            <mxPoint x="820" y="460" as="sourcePoint" />
            <mxPoint x="870" y="410" as="targetPoint" />
          </mxGeometry>
        </mxCell>
        <mxCell id="Wx7vON4yItLS-gl10yFj-83" value="" style="endArrow=none;html=1;rounded=0;entryX=-0.013;entryY=0.544;entryDx=0;entryDy=0;entryPerimeter=0;exitX=1.014;exitY=0.396;exitDx=0;exitDy=0;exitPerimeter=0;" edge="1" parent="1" source="Wx7vON4yItLS-gl10yFj-68" target="Wx7vON4yItLS-gl10yFj-70">
          <mxGeometry width="50" height="50" relative="1" as="geometry">
            <mxPoint x="1150" y="460" as="sourcePoint" />
            <mxPoint x="1200" y="410" as="targetPoint" />
          </mxGeometry>
        </mxCell>
        <mxCell id="Wx7vON4yItLS-gl10yFj-84" value="1:M" style="text;html=1;align=center;verticalAlign=middle;resizable=0;points=[];autosize=1;strokeColor=none;fillColor=none;" vertex="1" parent="1">
          <mxGeometry x="280" y="228" width="40" height="30" as="geometry" />
        </mxCell>
      </root>
    </mxGraphModel>
  </diagram>
</mxfile>
